<svg width="16" height="22" viewBox="0 0 16 22" fill="none" xmlns="http://www.w3.org/2000/svg">
<path d="M3.17695 0.29411C3.48517 0.29333 3.78971 0.344016 4.06819 0.442445C4.34667 0.540874 4.59201 0.684543 4.78619 0.862897L14.7511 10.0864C15.0546 10.3615 15.2205 10.7065 15.2205 11.0626C15.2205 11.4187 15.0546 11.7637 14.7511 12.0388L4.43546 21.2623C4.08527 21.5762 3.58204 21.7736 3.0365 21.8111C2.49095 21.8486 1.94777 21.7231 1.52644 21.4621C1.10512 21.2012 0.84016 20.8262 0.789862 20.4198C0.739563 20.0133 0.908041 19.6085 1.25823 19.2946L10.4804 11.0549L1.56771 2.81521C1.31542 2.58956 1.15516 2.3148 1.1059 2.02341C1.05663 1.73202 1.12042 1.43622 1.28971 1.171C1.459 0.90578 1.72671 0.682246 2.06117 0.526845C2.39562 0.371444 2.78282 0.290679 3.17695 0.29411Z" fill="black"/>
</svg>
