<svg width="16" height="22" viewBox="0 0 16 22" fill="none" xmlns="http://www.w3.org/2000/svg">
<path d="M12.8236 21.8211C12.5153 21.8219 12.2108 21.7712 11.9323 21.6728C11.6539 21.5744 11.4085 21.4307 11.2143 21.2523L1.2494 12.0288C0.945949 11.7537 0.78006 11.4087 0.78006 11.0526C0.78006 10.6966 0.945949 10.3515 1.2494 10.0765L11.5651 0.852945C11.9153 0.539012 12.4185 0.34159 12.964 0.304112C13.5096 0.266634 14.0528 0.39217 14.4741 0.653101C14.8954 0.914033 15.1604 1.28899 15.2107 1.69548C15.261 2.10197 15.0925 2.5067 14.7423 2.82063L5.52008 11.0603L14.4328 19.3C14.6851 19.5257 14.8454 19.8004 14.8946 20.0918C14.9439 20.3832 14.8801 20.679 14.7108 20.9442C14.5415 21.2095 14.2738 21.433 13.9394 21.5884C13.6049 21.7438 13.2177 21.8246 12.8236 21.8211Z" fill="black"/>
</svg>
